<?xml version="1.0" encoding="UTF-8" standalone="no"?>
<svg
   id="kanso_logo_final_v2_balanced_inverted"
   version="1.1"
   viewBox="0 0 230 64"
   height="64mm"
   width="230mm"
   xmlns="http://www.w3.org/2000/svg"
   xmlns:svg="http://www.w3.org/2000/svg">
  <defs
     id="defs2" />
  <metadata
     id="metadata5">
    <!-- Inverted color version of kanso-logo.svg -->
  </metadata>
  <g
     id="kanso-logo-group">
    <!--
      PARTE 1: L'ICONA (COLORI INVERTITI)
      - Cerchio di sfondo: #009688 → #ffffff
      - Icona timeline: #ffffff → #009688
    -->
    <circle
       id="background-circle"
       cx="32"
       cy="32"
       r="27"
       fill="#ffffff" />
    <g
       id="timeline-icon-teal"
       transform="translate(10.4, 10.4) scale(1.8)"
       fill="none"
       stroke="#009688"
       stroke-width="1.5"
       stroke-linecap="round"
       stroke-linejoin="round">
      <path
         stroke="none"
         d="M0 0h24v24H0z"
         fill="none" />
      <path
         d="M4 16l6 -7l5 5l5 -6" />
      <path
         d="M15 14m-1 0a1 1 0 1 0 2 0a1 1 0 1 0 -2 0" />
      <path
         d="M10 9m-1 0a1 1 0 1 0 2 0a1 1 0 1 0 -2 0" />
      <path
         d="M4 16m-1 0a1 1 0 1 0 2 0a1 1 0 1 0 -2 0" />
      <path
         d="M20 8m-1 0a1 1 0 1 0 2 0a1 1 0 1 0 -2 0" />
    </g>
    <!--
      PARTE 2: IL TESTO (COLORI INVERTITI)
      - Testo: #009688 → #ffffff
    -->
    <text
       id="kanso-text"
       x="70"
       y="50"
       font-family="sans-serif"
       font-size="50"
       font-weight="bold"
       fill="#ffffff"
       letter-spacing="1">
      Kanso
    </text>
  </g>
</svg>
